<?xml version="1.0" encoding="utf-8"?>
<!-- Generator: Adobe Illustrator 24.1.2, SVG Export Plug-In . SVG Version: 6.00 Build 0)  -->
<svg version="1.1" id="Layer_1" xmlns="http://www.w3.org/2000/svg" xmlns:xlink="http://www.w3.org/1999/xlink" x="0px" y="0px"
	 viewBox="0 0 629.2 595.3" style="enable-background:new 0 0 629.2 595.3;" xml:space="preserve">
<g>
	<path d="M37.6,552L282.9,24.5c2.4-4.7,7.8-8.6,13.3-8.6h7.8c5.5,0,11,3.9,13.3,8.6L562.7,552c4.7,10.2-1.6,20.4-13.3,20.4h-87
		c-14.1,0-20.4-4.7-27.4-19.6l-28.2-61.9H193.6l-28.2,62.7c-3.9,9.4-12.5,18.8-28.2,18.8H51C39.2,572.3,32.9,562.2,37.6,552z
		 M359.8,384.2l-59.6-129.3h-0.8l-58.8,129.3H359.8z"/>
</g>
</svg>
