<?xml version="1.0" encoding="utf-8"?>
<!-- Generator: Adobe Illustrator 24.1.2, SVG Export Plug-In . SVG Version: 6.00 Build 0)  -->
<svg version="1.1" id="Layer_1" xmlns="http://www.w3.org/2000/svg" xmlns:xlink="http://www.w3.org/1999/xlink" x="0px" y="0px"
	 viewBox="0 0 479.7 595.3" style="enable-background:new 0 0 479.7 595.3;" xml:space="preserve">
<path d="M0,38.6c0-7.8,6.3-14.9,14.9-14.9h182.6C290,23.7,366,87.2,366,169.5c0,60.3-54.1,104.2-90.9,123.8
	c41.5,17.2,105,55.6,105,127.8c0,87.8-77.6,151.3-170.9,151.3H14.9c-8.6,0-14.9-7.1-14.9-14.9V38.6z M183.4,246.3
	c29.8,0,54.9-25.1,54.9-56.4s-25.1-53.3-54.9-53.3h-61.1v109.7H183.4z M193.6,460.3c30.6,0,56.4-25.1,56.4-57.2
	c0-31.4-33.7-54.9-64.3-54.9h-63.5v112.1H193.6z"/>
</svg>
