<?xml version="1.0" encoding="utf-8"?>
<!-- Generator: Adobe Illustrator 24.1.2, SVG Export Plug-In . SVG Version: 6.00 Build 0)  -->
<svg version="1.1" id="Layer_1" xmlns="http://www.w3.org/2000/svg" xmlns:xlink="http://www.w3.org/1999/xlink" x="0px" y="0px"
	 viewBox="0 0 461.9 595.3" style="enable-background:new 0 0 461.9 595.3;" xml:space="preserve">
<path d="M2.6,40.7c0-7.8,6.3-14.9,14.9-14.9h324.5c8.6,0,14.9,7.1,14.9,14.9v85.4c0,7.8-6.3,14.9-14.9,14.9H124.8v97.2h178.7
	c7.8,0,14.9,7.1,14.9,14.9v85.4c0,8.6-7.1,14.9-14.9,14.9H124.8v105.8h217.1c8.6,0,14.9,7.1,14.9,14.9v85.4
	c0,7.8-6.3,14.9-14.9,14.9H17.4c-8.6,0-14.9-7.1-14.9-14.9V40.7z"/>
</svg>
