<?xml version="1.0" encoding="utf-8"?>
<!-- Generator: Adobe Illustrator 24.1.2, SVG Export Plug-In . SVG Version: 6.00 Build 0)  -->
<svg version="1.1" id="Layer_1" xmlns="http://www.w3.org/2000/svg" xmlns:xlink="http://www.w3.org/1999/xlink" x="0px" y="0px"
	 viewBox="0 0 531 595.3" style="enable-background:new 0 0 531 595.3;" xml:space="preserve">
<path d="M304.5,16.7c65.8,0,137.9,27.4,191.2,73.7c7.1,5.5,7.8,14.9,1.6,21.2l-61.9,65.8c-6.3,5.5-14.9,5.5-21.2,0.8
	c-29.8-27.4-64.3-37.6-102.7-37.6c-85.4,0-154.4,72.1-154.4,158.3c0,85.4,69.8,156,155.2,156c22.7,0,46.2-3.1,69.8-12.5v-45.5h-49.4
	c-8.6,0-14.9-6.3-14.9-14.1v-77.6c0-8.6,6.3-14.9,14.9-14.9h157.5c7.8,0,14.1,7.1,14.1,14.9l0.8,210.8c0,3.9-3.1,10.2-6.3,12.5
	c0,0-80.7,50.9-194.4,50.9c-156,0-281.4-123.8-281.4-280.6S148.5,16.7,304.5,16.7z"/>
</svg>
