<?xml version="1.0" encoding="utf-8"?>
<!-- Generator: Adobe Illustrator 24.1.2, SVG Export Plug-In . SVG Version: 6.00 Build 0)  -->
<svg version="1.1" id="Layer_1" xmlns="http://www.w3.org/2000/svg" xmlns:xlink="http://www.w3.org/1999/xlink" x="0px" y="0px"
	 viewBox="0 0 525.1 595.3" style="enable-background:new 0 0 525.1 595.3;" xml:space="preserve">
<path d="M-0.1,46.4c0-7.8,6.3-14.9,14.9-14.9h234.3c94,0,170.9,76,170.9,169.3c0,72.1-47.8,130.1-116,157.5l107.4,199.1
	c5.5,10.2,0,22.7-13.3,22.7H293.8c-6.3,0-11-3.9-12.5-7.1L177.1,365.4H123v199.9c0,7.8-7.1,14.9-14.9,14.9H14.8
	c-8.6,0-14.9-7.1-14.9-14.9V46.4z M239,265.9c32.1,0,59.6-29.8,59.6-62.7s-27.4-59.6-59.6-59.6H123v122.3H239z"/>
</svg>
