<?xml version="1.0" encoding="utf-8"?>
<!-- Generator: Adobe Illustrator 24.1.2, SVG Export Plug-In . SVG Version: 6.00 Build 0)  -->
<svg version="1.1" id="Layer_1" xmlns="http://www.w3.org/2000/svg" xmlns:xlink="http://www.w3.org/1999/xlink" x="0px" y="0px"
	 viewBox="0 0 1699.1 902" style="enable-background:new 0 0 1699.1 902;" xml:space="preserve">
<style type="text/css">
	.st0{fill:#272525;}
	.st1{fill:#FF0000;}
</style>
<path class="st0" d="M747.8,253.7c-38.9,0-79.4,28.4-79.4,28.4v-18.2c0-4-1.6-5.6-5.6-5.6h-49.7c-4,0-6.4,2.4-6.4,5.6v389
	c0,4,1.6,6.4,5.6,6.4h50.4c3.2,0,5.6-2.4,5.6-6.4v-333c0,0,23.4-14.8,51.8-14.8c27.1,0,48.4,13.4,48.4,41v306.8c0,4,2.4,6.4,6.4,6.4
	h49.6c4,0,5.6-3.2,5.6-6.4V328.5C830.2,279.7,800.2,253.7,747.8,253.7L747.8,253.7z M1133.8,58.5h-49.6c-4,0-6.4,2.4-6.4,5.6v196.2
	c-19.1-7.3-36.4-11.2-50.4-11.2c-80.6,0-135.9,77.1-135.9,225.2c0,126.9,53.8,195,124.1,195c29.6,0,54.1-17,71.9-32.9l10.8,18.4
	c1.8,3.2,3.3,4.3,7,4.3h28.5c3.2,0,5.6-2.4,5.6-6.4V64.1C1139.4,60.1,1137.8,58.5,1133.8,58.5L1133.8,58.5z M957.1,461.3
	c0-81.6,23.9-162.5,72.7-162.5c16.5,0,32.4,5.4,48,17.9v287.6c-12.2,6.7-27.6,12.8-44.2,12.8C980.5,617.1,957.1,554.2,957.1,461.3
	L957.1,461.3z M1323.9,250c-82.7,0-123.4,108.1-123.4,225.8c0,123.2,58.2,192.2,133,192.2c32.9,0,65.6-12.9,87.1-24.9
	c3.3-1.8,3.9-4.4,3.1-7.6l-6.3-26c-0.8-3.2-2.4-4.8-6.4-4.8c-1.7,0-28.9,7.9-55.2,7.9c-61.2,0-89.3-54.4-89.3-126.7v-17.6
	c0,0,30.4,4.2,48.7,4.2h115.5v-33.4C1430.7,316,1387.5,250,1323.9,250L1323.9,250z M1320,422.5c-18.3,0-51.5,4.5-51.5,4.5
	s0.4-13.3,2-26c7.2-67.6,23.3-101.8,51.1-101.8c24.2,0,40.8,35,44.7,96.2c0.8,12.7,0.8,27,0.8,27L1320,422.5L1320,422.5z
	 M512.5,300.6c-18.4-36.2-51-52-88.5-52c-24.1,0-61.6,9.2-86.7,20.5c-4.9,2.2-8,4.1-8,8c0,2.3,1.1,4.9,2.4,7.2l16.9,36.2
	c1.7,4.1,4.5,5,6.8,5c2.5,0,4.5-1.2,6.8-2.6c24.5-15.6,42.4-24.2,56.6-24.2c18.8,0,31.5,12.4,39.4,31.2
	c7.3,17.4,10.2,41.5,10.2,69.4c0,3.5,0,8.2,0,8.2c-15.4-9.6-42.1-15-55.4-15c-71.7,0-110.4,68.1-110.4,141
	c0,78.5,45.2,136.1,99.5,136.1c30.2,0,57.6-17.7,76-40.1c0,0,9.8,23.3,11,26.1c1.3,2.8,2.6,3.8,6.3,3.8h29c3.2,0,5.6-2.4,5.6-6.4
	V427.2C529.9,371.7,527.1,329.4,512.5,300.6L512.5,300.6z M468.3,596.2c-14.2,13.7-31.2,20.9-46.6,20.9c-15.3,0-27.2-7.1-36.7-20.2
	c-11.6-15.9-17-40.5-17-67.7c0-43,15.9-87.2,49.6-87.2c16.7,0,35,5.4,50.6,17.9L468.3,596.2L468.3,596.2z M1692.8,258.1h-44.2
	c-4.9,0-7.5,2.6-8.7,5.9c-9.8,25.6-19.5,51.3-29.2,77c-5.5,14.6-20.2,56.3-20.2,56.3h-1.7c-0.1-0.2-10.8-30.4-16.7-45.5
	c-4.7-12.3-29.4-77.2-32.5-85.2c-1.7-4.3-3.5-8.6-9.9-8.6h-48.4c-5.3,0-8.3,5.8-6.6,9.5c1.7,3.6,78.9,179.4,78.9,179.4
	s-82.9,196.8-85.3,201.2s0.6,11,6.5,11h42.4c7.2,0,10.1-3.8,12.2-9.9c6.1-17.1,15.2-40.9,28-77.6c8.5-24.3,22-67.1,22-67.1h1.5
	c0,0,14.8,43.5,20.2,57.8c13.9,36,31.6,83,33.5,88c2,5.2,4.7,8.8,9.7,8.8h48.1c4.8,0,7-5.4,4.7-10.2
	c-5.4-11.3-51.1-122.3-82.8-195.4c0,0,82.4-181.8,84-186.3C1700,262.9,1699.6,258.1,1692.8,258.1L1692.8,258.1z"/>
<path class="st1" d="M352.6,0h-55.8c-4.9,0-8,2.4-8.7,5.9s-83.7,256.5-89.7,277.6c-4.3,14.9-18.2,67.6-21.6,80.2L147.9,285
	c-7-21.7-74.2-209.4-76.2-216.9c-1.1-4.1-3-9.2-10.2-9.2H7.1c-5.3,0-8.3,5.8-6.6,9.5c1.4,2.9,99.8,264.7,139.5,364.7V653
	c0,4,1.6,6.4,5.6,6.4h51.6c3.2,0,5.6-2.4,5.6-6.4V434.7C235.9,342.1,356.9,12.9,358.2,9.2C359.8,4.7,359.4,0,352.6,0z"/>
</svg>
