<?xml version="1.0" encoding="utf-8"?>
<!-- Generator: Adobe Illustrator 24.1.2, SVG Export Plug-In . SVG Version: 6.00 Build 0)  -->
<svg version="1.1" id="Layer_1" xmlns="http://www.w3.org/2000/svg" xmlns:xlink="http://www.w3.org/1999/xlink" x="0px" y="0px"
	 viewBox="0 0 3919.5 1654.4" style="enable-background:new 0 0 3919.5 1654.4;" xml:space="preserve">
<style type="text/css">
	.st0{fill:url(#SVGID_1_);}
	.st1{fill:url(#SVGID_2_);}
	.st2{fill:url(#SVGID_3_);}
	.st3{fill:url(#SVGID_4_);}
	.st4{fill:url(#SVGID_5_);}
	.st5{fill:url(#SVGID_6_);}
	.st6{fill:#FFFFFF;}
	.st7{fill:#53C1DE;}
	.st8{fill:#272525;}
	.st9{fill:#FF0000;}
	.st10{fill:#F12E45;}
	.st11{fill:none;stroke:#1D1D1B;stroke-width:4;stroke-miterlimit:10;}
</style>
<g>
	
		<linearGradient id="SVGID_1_" gradientUnits="userSpaceOnUse" x1="4211.2388" y1="1251.8992" x2="4211.7275" y2="1251.3773" gradientTransform="matrix(805.5508 0 0 -795.1891 -3389107.25 995660.25)">
		<stop  offset="0" style="stop-color:#F9A03C"/>
		<stop  offset="1" style="stop-color:#F7974E"/>
	</linearGradient>
	<path class="st0" d="M3643.8,566.5c0.3-2.9,0.5-5.7,0.7-8.6c0.2-3.4-206.4-199.5-206.4-199.5h-4.9
		C3433,358.4,3642.5,579.3,3643.8,566.5L3643.8,566.5z"/>
	
		<linearGradient id="SVGID_2_" gradientUnits="userSpaceOnUse" x1="4209.2075" y1="1257.4785" x2="4210.1431" y2="1256.566" gradientTransform="matrix(392.6758 0 0 -394.6426 -1649920.125 496495.0625)">
		<stop  offset="0" style="stop-color:#F9A03C"/>
		<stop  offset="1" style="stop-color:#F7974E"/>
	</linearGradient>
	<path class="st1" d="M3202.9,498.5c-0.3,0.6-0.6,1.2-0.8,1.8c-0.3,0.6-0.6,1.3-0.9,1.9c-6.6,13.7,92.2,110.3,100.2,98.6
		c0.4-0.5,0.7-1.1,1.1-1.6c0.4-0.6,0.8-1.2,1.2-1.8C3309.9,587.7,3205.7,492.2,3202.9,498.5L3202.9,498.5z"/>
	
		<linearGradient id="SVGID_3_" gradientUnits="userSpaceOnUse" x1="4208.4282" y1="1258.6035" x2="4209.2607" y2="1257.6492" gradientTransform="matrix(400.7761 0 0 -389.963 -1683534.625 491175.75)">
		<stop  offset="0" style="stop-color:#F9A03C"/>
		<stop  offset="1" style="stop-color:#F7974E"/>
	</linearGradient>
	<path class="st2" d="M3342.5,634.3c-0.3,0.6-2.3,4-4.1,5.7c-0.3,0.6,96.5,96.6,96.5,96.6h8.7
		C3443.6,736.7,3352.7,638.4,3342.5,634.3z"/>
	
		<linearGradient id="SVGID_4_" gradientUnits="userSpaceOnUse" x1="4214.0674" y1="1248.6444" x2="4214.2544" y2="1248.3979" gradientTransform="matrix(2498.3396 0 0 -2363.3909 -10525100 2951133.75)">
		<stop  offset="0" style="stop-color:#F26D58"/>
		<stop  offset="1" style="stop-color:#F9A03C"/>
	</linearGradient>
	<path class="st3" d="M3644.6,556.1c-4.5,100.3-87.5,180.5-188.9,180.5H3442l-101.3-99.7c8.3-11.8,16.1-23.9,23-36.6h92
		c29.1,0,52.8-23.7,52.8-52.8s-23.7-52.8-52.8-52.8h-54.5c4.1-21.9,6.4-44.5,6.4-67.7c0-23.5-2.3-46.4-6.6-68.7h33.8L3644,564.5
		C3644.2,561.7,3644.4,558.9,3644.6,556.1L3644.6,556.1z M3044,116.5h-55v136.4h55c96.1,0,174.2,78.1,174.2,174.2
		c0,26.1-5.8,51-16.2,73.2l100.3,98.9c33-49.3,52.2-108.5,52.2-172.1C3354.6,255.8,3215.3,116.5,3044,116.5z"/>
	
		<linearGradient id="SVGID_5_" gradientUnits="userSpaceOnUse" x1="4213.3477" y1="1249.0463" x2="4213.6211" y2="1248.8665" gradientTransform="matrix(1569.598 0 0 -1707.1244 -6609966 2132414.75)">
		<stop  offset="0" style="stop-color:#B84E51"/>
		<stop  offset="1" style="stop-color:#F68E48"/>
	</linearGradient>
	<path class="st4" d="M3455.7,116.5h-222.8c54.4,33.2,99.5,80.3,130.2,136.4h92.6c29.1,0,52.8,23.7,52.8,52.8
		c0,29.1-23.7,52.8-52.8,52.8h-20.8L3644,564.5c0.5-5.6,0.8-11.2,0.8-16.9c0-46-16.5-88.1-43.9-121c27.4-32.8,43.9-75,43.9-120.9
		C3644.8,201.3,3559.9,116.5,3455.7,116.5z"/>
	
		<linearGradient id="SVGID_6_" gradientUnits="userSpaceOnUse" x1="4213.9385" y1="1251.5363" x2="4213.9512" y2="1251.2111" gradientTransform="matrix(1726.1868 0 0 -904.572 -7270842.5 1132660.75)">
		<stop  offset="0" style="stop-color:#F9A03C"/>
		<stop  offset="1" style="stop-color:#F7974E"/>
	</linearGradient>
	<path class="st5" d="M3441.9,736.7h-207.5c41.8-25.8,77.9-59.8,106.2-99.7L3441.9,736.7L3441.9,736.7z M3302.4,599.2L3202,500.3
		c-27.7,59.6-88.1,101-158.1,101h-55v136.4h55C3151.6,737.7,3246.6,682.6,3302.4,599.2z"/>
</g>
<g>
	<path class="st6" d="M2971.4,1202.1c0,52.2,51,100.9,131.3,128.3c-16,80.7-2.9,145.9,41.1,171.2c45.2,26.1,112.6,8,176.4-47.8
		c62.3,53.6,125.3,74.7,169.2,49.3c45.2-26.1,58.9-95.7,42.4-178.9c83.7-27.7,130.5-69.2,130.5-122.1c0-51-51-95.1-130.3-122.3
		c17.7-86.7,2.7-150.2-43.1-176.6c-44.2-25.5-107.9-3.3-171.1,51.7c-65.8-58.4-128.8-76.2-174.6-49.8
		c-44.1,25.5-56.7,91.8-40.6,174.1C3025.1,1106.3,2971.4,1151.4,2971.4,1202.1z"/>
	<path class="st7" d="M3515.3,1106.9c-6.5-2.2-13.1-4.3-19.8-6.2c1.1-4.5,2.1-9,3-13.5c15-72.6,5.2-131.1-28.2-150.3
		c-32-18.4-84.4,0.8-137.2,46.8c-5.2,4.5-10.3,9.2-15.3,14c-3.3-3.2-6.7-6.3-10.2-9.4c-55.4-49.2-111-69.9-144.3-50.6
		c-32,18.5-41.5,73.5-28,142.3c1.3,6.8,2.9,13.6,4.5,20.3c-7.8,2.2-15.5,4.6-22.7,7.1c-65,22.6-106.5,58.2-106.5,95
		c0,38,44.5,76.2,112.2,99.3c5.5,1.9,11,3.6,16.6,5.2c-1.8,7.2-3.4,14.6-4.8,21.9c-12.8,67.6-2.8,121.3,29.1,139.7
		c32.9,19,88.2-0.5,142.1-47.6c4.3-3.7,8.5-7.7,12.8-11.8c5.4,5.2,10.9,10.2,16.6,15.1c52.1,44.9,103.7,63,135.5,44.6
		c32.9-19.1,43.6-76.7,29.7-146.8c-1-5.4-2.3-10.8-3.7-16.4c3.9-1.2,7.7-2.3,11.4-3.6c70.4-23.3,116.1-61,116.1-99.5
		C3624.4,1165.4,3581.5,1129.7,3515.3,1106.9L3515.3,1106.9z"/>
	<path class="st6" d="M3500,1277c-3.4,1.1-6.8,2.2-10.3,3.2c-7.8-24.6-18.2-50.7-31.1-77.7c12.2-26.4,22.3-52.2,29.9-76.6
		c6.3,1.8,12.4,3.7,18.2,5.7c56.8,19.6,91.4,48.4,91.4,70.7C3598.2,1226.1,3560.8,1256.9,3500,1277L3500,1277z M3474.8,1327
		c6.1,31,7,59.1,2.9,81c-3.6,19.7-11,32.8-20.1,38.1c-19.3,11.2-60.7-3.4-105.3-41.7c-5.1-4.4-10.3-9.1-15.4-14.1
		c17.3-18.9,34.6-40.9,51.4-65.3c29.7-2.6,57.7-6.9,83.1-12.8C3472.7,1317.2,3473.9,1322.1,3474.8,1327L3474.8,1327z M3220,1444.1
		c-18.9,6.7-33.9,6.9-43,1.6c-19.4-11.2-27.4-54.3-16.4-112.1c1.3-6.8,2.8-13.6,4.5-20.4c25.1,5.6,53,9.6,82.7,12
		c17,23.9,34.7,45.8,52.7,65.1c-3.8,3.7-7.7,7.3-11.7,10.8C3264.8,1421.9,3241,1436.7,3220,1444.1L3220,1444.1z M3131.4,1276.9
		c-29.9-10.2-54.6-23.5-71.6-38c-15.2-13-22.9-26-22.9-36.5c0-22.3,33.3-50.8,88.9-70.2c7-2.4,14-4.6,21.1-6.6
		c7.7,25,17.8,51.1,29.9,77.5c-12.3,26.8-22.5,53.3-30.3,78.6C3141.5,1280.2,3136.5,1278.6,3131.4,1276.9z M3161.1,1074.9
		c-11.5-58.9-3.9-103.4,15.4-114.5c20.5-11.9,65.9,5.1,113.8,47.6c3.1,2.7,6.1,5.6,9.2,8.5c-17.8,19.2-35.5,40.9-52.3,64.7
		c-28.9,2.7-56.5,7-81.9,12.7C3163.8,1087.6,3162.4,1081.2,3161.1,1074.9L3161.1,1074.9z M3425.8,1140.3
		c-6-10.4-12.2-20.6-18.7-30.7c19.6,2.5,38.3,5.7,55.9,9.8c-5.3,17-11.9,34.7-19.6,52.8C3437.8,1161.4,3431.9,1150.8,3425.8,1140.3
		L3425.8,1140.3z M3317.9,1035.1c12.1,13.1,24.2,27.7,36.1,43.6c-24.2-1.2-48.4-1.2-72.5,0C3293.4,1063,3305.6,1048.4,3317.9,1035.1
		L3317.9,1035.1z M3209.2,1140.4c-6,10.4-11.8,21-17.3,31.7c-7.6-18.1-14.2-35.9-19.5-53.1c17.5-3.9,36.2-7.1,55.6-9.6
		C3221.5,1119.7,3215.3,1130,3209.2,1140.4z M3228.6,1297.1c-20.1-2.3-39-5.3-56.6-9.1c5.4-17.5,12.1-35.7,19.9-54.2
		c5.5,10.7,11.3,21.3,17.4,31.8C3215.5,1276.3,3221.9,1286.7,3228.6,1297.1z M3318.6,1371.5c-12.4-13.4-24.8-28.2-36.9-44.2
		c11.8,0.5,23.7,0.7,35.9,0.7c12.5,0,24.9-0.3,37.1-0.8C3342.7,1343.4,3330.6,1358.3,3318.6,1371.5z M3443.7,1232.9
		c8.2,18.7,15.1,36.8,20.6,54c-17.8,4.1-37,7.3-57.2,9.8c6.5-10.3,12.8-20.7,18.8-31.2C3432.1,1254.7,3438,1243.9,3443.7,1232.9
		L3443.7,1232.9z M3403.2,1252.3c-9.3,16.1-19.1,32-29.4,47.5c-18.2,1.3-37,2-56.2,2c-19.1,0-37.7-0.6-55.6-1.8
		c-10.6-15.5-20.6-31.3-30-47.6c-9.3-16.1-18.1-32.6-26.2-49.4c8.1-16.8,16.8-33.3,26.1-49.5l0,0c9.3-16.2,19.2-32,29.8-47.4
		c18.2-1.4,36.9-2.1,55.9-2.1c19,0,37.7,0.7,56,2.1c10.4,15.4,20.3,31.1,29.6,47.2c9.3,16.1,18.2,32.5,26.5,49.2
		C3421.4,1219.5,3412.6,1236.1,3403.2,1252.3L3403.2,1252.3z M3457.3,959.6c20.5,11.9,28.5,59.6,15.6,122.3
		c-0.8,4.1-1.8,8.2-2.8,12.2c-25.5-5.9-53.1-10.2-82.1-13c-16.9-24-34.3-45.8-51.9-64.7c4.6-4.4,9.3-8.7,14.1-12.9
		C3395.6,964,3438,948.5,3457.3,959.6L3457.3,959.6z"/>
	<path class="st7" d="M3317.6,1147.6c30.3,0,54.8,24.5,54.8,54.8c0,30.3-24.5,54.8-54.8,54.8s-54.8-24.5-54.8-54.8
		C3262.8,1172.1,3287.3,1147.6,3317.6,1147.6"/>
</g>
<g>
	<path class="st8" d="M1060.7,1133.8c-35.5,0-72.6,25.9-72.6,25.9v-16.7c0-3.7-1.5-5.1-5.1-5.1h-45.4c-3.7,0-5.9,2.2-5.9,5.1v355.6
		c0,3.7,1.5,5.9,5.1,5.9H983c2.9,0,5.1-2.2,5.1-5.9v-304.4c0,0,21.4-13.6,47.4-13.6c24.7,0,44.3,12.3,44.3,37.5v280.5
		c0,3.7,2.2,5.9,5.9,5.9h45.4c3.7,0,5.1-2.9,5.1-5.9v-296.4C1136.1,1157.6,1108.6,1133.8,1060.7,1133.8L1060.7,1133.8z
		 M1413.6,955.4h-45.4c-3.7,0-5.9,2.2-5.9,5.1v179.4c-17.4-6.7-33.3-10.2-46.1-10.2c-73.7,0-124.3,70.4-124.3,205.9
		c0,116,49.2,178.3,113.4,178.3c27.1,0,49.4-15.5,65.8-30.1l9.9,16.8c1.7,2.9,3,3.9,6.4,3.9l26.1,0c2.9,0,5.1-2.2,5.1-5.9V960.5
		C1418.7,956.9,1417.2,955.4,1413.6,955.4L1413.6,955.4z M1252,1323.6c0-74.6,21.8-148.5,66.4-148.5c15.1,0,29.6,5,43.9,16.3v262.9
		c-11.2,6.1-25.2,11.7-40.4,11.7C1273.4,1466,1252,1408.5,1252,1323.6L1252,1323.6z M1587.4,1130.5c-75.6,0-112.8,98.8-112.8,206.4
		c0,112.6,53.2,175.7,121.6,175.7c30.1,0,60-11.8,79.6-22.7c3-1.7,3.5-4,2.8-6.9l-5.7-23.8c-0.7-2.9-2.2-4.4-5.8-4.4
		c-1.6,0-26.4,7.3-50.5,7.3c-56,0-81.6-49.7-81.6-115.8v-16.1c0,0,27.8,3.8,44.5,3.8h105.6v-30.5
		C1684.9,1190.8,1645.5,1130.5,1587.4,1130.5L1587.4,1130.5z M1583.7,1288.2c-16.7,0-47.1,4.1-47.1,4.1s0.4-12.1,1.9-23.7
		c6.5-61.8,21.3-93,46.7-93c22.1,0,37.3,32,40.9,87.9c0.7,11.6,0.7,24.7,0.7,24.7H1583.7z M845.6,1176.7
		c-16.8-33.1-46.7-47.5-80.9-47.5c-22,0-56.3,8.4-79.2,18.7c-4.5,2-7.3,3.8-7.3,7.3c0,2.1,1,4.5,2.2,6.6l15.4,33.1
		c1.6,3.7,4.1,4.6,6.3,4.6c2.3,0,4.1-1.1,6.2-2.4c22.4-14.3,38.7-22.1,51.7-22.1c17.2,0,28.8,11.4,36,28.5c6.7,15.9,9.3,38,9.3,63.4
		c0,3.2,0,7.5,0,7.5c-14.1-8.8-38.5-13.7-50.7-13.7c-65.5,0-100.9,62.3-100.9,128.9c0,71.8,41.3,124.4,91,124.4
		c27.6,0,52.7-16.2,69.4-36.7c0,0,8.9,21.3,10.1,23.8c1.2,2.5,2.4,3.5,5.8,3.5l26.5,0c2.9,0,5.1-2.2,5.1-5.9v-206.3
		C861.5,1241.7,859,1203,845.6,1176.7L845.6,1176.7z M805.2,1446.9c-13,12.6-28.6,19.1-42.6,19.1c-14,0-24.8-6.5-33.5-18.5
		c-10.6-14.6-15.5-37-15.5-61.9c0-39.3,14.5-79.7,45.3-79.7c15.2,0,32,5,46.3,16.3L805.2,1446.9L805.2,1446.9z M1924.5,1137.9h-40.4
		c-4.5,0-6.8,2.4-8,5.4c-8.9,23.4-17.8,46.9-26.7,70.4c-5,13.3-18.5,51.5-18.5,51.5l-1.6,0c-0.1-0.1-9.9-27.7-15.2-41.6
		c-4.3-11.2-26.8-70.6-29.7-77.9c-1.5-3.9-3.2-7.8-9-7.8h-44.3c-4.9,0-7.6,5.3-6.1,8.7c1.6,3.3,72.1,164,72.1,164
		s-75.7,179.9-78,183.9c-2.2,4,0.6,10,6,10h38.8c6.6,0,9.2-3.5,11.2-9c5.6-15.6,13.9-37.3,25.6-70.9c7.8-22.2,20.1-61.3,20.1-61.3
		h1.4c0,0,13.5,39.8,18.5,52.8c12.7,32.9,28.9,75.9,30.6,80.4c1.8,4.7,4.3,8,8.8,8h44c4.4,0,6.4-5,4.3-9.3
		c-4.9-10.3-46.7-111.8-75.7-178.6c0,0,75.3-166.2,76.8-170.3C1931.2,1142.2,1930.7,1137.9,1924.5,1137.9L1924.5,1137.9z"/>
	<path class="st9" d="M699.4,901.9h-51c-4.5,0-7.3,2.2-8,5.4c-0.6,3.2-76.5,234.5-82,253.7c-3.9,13.7-16.6,61.8-19.7,73.4l-26.4-72
		c-6.4-19.8-67.8-191.4-69.6-198.3c-1-3.8-2.7-8.5-9.3-8.5h-49.8c-4.9,0-7.6,5.3-6.1,8.7c1.3,2.6,91.2,241.9,127.5,333.3v201
		c0,3.7,1.5,5.9,5.1,5.9h47.2c2.9,0,5.1-2.2,5.1-5.9v-199.4c30.3-84.6,140.9-385.5,142.1-388.9C706.1,906.3,705.7,901.9,699.4,901.9
		z"/>
</g>
<g>
	<path class="st10" d="M1538.8,227.4h-99.7c-2.3,0-4.5,2.3-4.5,4.5v57.8c0,2.3,2.3,4.5,4.5,4.5h99.7c2.3,0,4.5-2.3,4.5-4.5V232
		C1544.5,229.7,1542.2,227.4,1538.8,227.4z M1537.7,313.5h-192.5c-2.3,0-5.7,2.3-6.8,4.5l-24.9,94l-1.1,4.5l-29.4-100.8
		c-1.1-2.3-3.4-4.5-6.8-4.5h-74.7c-2.3,0-5.7,2.3-6.8,4.5l-28.3,94l-1.1,4.5l-1.1-2.3l-11.3-46.4l-12.5-46.4
		c-1.1-2.3-3.4-4.5-6.8-4.5H982.8v-81.5c0-2.3-3.4-5.7-6.8-4.5L880.8,258c-3.4,1.1-4.5,2.3-4.5,4.5v51h-24.9c-2.3,0-4.5,2.3-4.5,4.5
		v72.5c0,2.3,2.3,4.5,4.5,4.5h24.9v88.3c0,62.3,34,91.7,96.3,91.7c26,0,51-5.7,67.9-14.7v-74.7c0-3.4-3.4-4.5-5.7-4.5
		c-10.2,4.5-18.1,5.7-27.2,5.7c-17,0-26-6.8-26-26v-64.6h54.4c2.3,0,4.5-2.3,4.5-4.5v-61.2l71.3,236.7c1.1,2.3,3.4,4.5,6.8,4.5h79.3
		c2.3,0,5.7-2.3,6.8-4.5l34-105.3l17,54.4l15.9,49.8c1.1,2.3,3.4,4.5,6.8,4.5h79.3c2.3,0,5.7-2.3,6.8-4.5l72.5-237.8v237.8
		c0,2.3,2.3,4.5,4.5,4.5h96.3c2.3,0,4.5-2.3,4.5-4.5V319.2C1542.2,315.8,1539.9,313.5,1537.7,313.5L1537.7,313.5z M1664.5,227.4
		h-96.3c-2.3,0-4.5,2.3-4.5,4.5v334.1c0,2.3,2.3,4.5,4.5,4.5h96.3c2.3,0,4.5-2.3,4.5-4.5V232C1669,229.7,1666.8,227.4,1664.5,227.4z
		 M1792.5,227.4h-99.7c-2.3,0-4.5,2.3-4.5,4.5v57.8c0,2.3,2.3,4.5,4.5,4.5h99.7c2.3,0,4.5-2.3,4.5-4.5V232
		C1798.1,229.7,1795.9,227.4,1792.5,227.4z M1791.3,313.5h-96.3c-2.3,0-4.5,2.3-4.5,4.5v248c0,2.3,2.3,4.5,4.5,4.5h96.3
		c2.3,0,4.5-2.3,4.5-4.5V319.2C1795.9,315.8,1793.6,313.5,1791.3,313.5z M1951,307.8c-84.9,0-145,62.3-145,134.8v1.1
		c0,72.5,60,133.6,143.8,133.6c84.9,0,145-62.3,145-134.8v-1.1C2094.8,369,2034.8,307.8,1951,307.8z M1991.8,442.6
		c0,24.9-17,44.2-40.8,44.2s-41.9-20.4-41.9-45.3v-1.1c0-24.9,17-44.2,40.8-44.2C1973.7,396.2,1991.8,416.6,1991.8,442.6z
		 M495.8,116.5c-156.3,0-283.1,126.8-283.1,283.1s126.8,283.1,283.1,283.1s283.1-126.8,283.1-283.1S652.1,116.5,495.8,116.5z
		 M495.8,608c-115.5,0-208.4-92.9-208.4-208.4s92.9-208.4,208.4-208.4s208.4,92.9,208.4,208.4S611.3,608,495.8,608z"/>
	<circle class="st10" cx="566" cy="329.4" r="58.9"/>
	<circle class="st10" cx="566" cy="469.8" r="58.9"/>
	<circle class="st10" cx="425.6" cy="469.8" r="58.9"/>
	<circle class="st10" cx="425.6" cy="329.4" r="58.9"/>
</g>
<line class="st11" x1="2523.9" y1="116.5" x2="2523.9" y2="1554.2"/>
</svg>
