<?xml version="1.0" encoding="utf-8"?>
<!-- Generator: Adobe Illustrator 24.1.2, SVG Export Plug-In . SVG Version: 6.00 Build 0)  -->
<svg version="1.1" id="Layer_1" xmlns="http://www.w3.org/2000/svg" xmlns:xlink="http://www.w3.org/1999/xlink" x="0px" y="0px"
	 viewBox="0 0 2832.89 2832.89" style="enable-background:new 0 0 2832.89 2832.89;" xml:space="preserve">
<style type="text/css">
	.st0{fill-rule:evenodd;clip-rule:evenodd;}
	.st1{fill-rule:evenodd;clip-rule:evenodd;fill:#CC2229;}
</style>
<g>
	<path class="st0" d="M982.56,2516.02h-81.09l-31.67-114H720.32l-31.67,114h-78.54l138.08-504.19h88.68L982.56,2516.02z
		 M847.01,2319.67l-53.19-190.01l-49.42,190.01H847.01z M1273.94,2516.02h-68.41v-51.93c-11.4,22.79-26.61,38.02-40.54,44.35
		c-13.92,7.59-29.15,16.49-44.35,16.49c-27.88,0-55.73-19.03-76-50.69c-22.8-29.12-32.93-79.78-32.93-139.34
		c0-60.79,10.14-114.03,29.15-145.69c20.26-30.4,49.4-49.39,83.62-49.39c26.61,0,54.48,18.99,78.54,53.19v-181.18h70.95v504.18
		H1273.94z M1081.37,2326.03c0,37.99,5.07,72.18,11.4,87.41c11.41,22.79,27.88,37.99,46.88,37.99c17.72,0,31.67-11.4,43.06-25.32
		c11.4-19.03,20.26-50.69,20.26-88.68c0-40.56-6.33-74.75-17.72-93.77c-10.14-18.99-27.88-31.67-45.6-31.67
		c-15.2,0-29.15,12.67-41.81,27.89C1086.43,2258.88,1081.37,2288,1081.37,2326.03L1081.37,2326.03z M1332.2,2326.03
		c0-29.16,3.79-60.82,15.2-89.95c12.67-30.4,29.15-53.19,49.4-68.41c21.53-16.45,48.14-27.85,73.49-27.85
		c39.28,0,76,18.99,100.08,53.19c26.61,37.99,40.54,88.68,40.54,141.89s-13.93,101.35-40.54,135.56
		c-27.88,35.46-60.8,54.48-100.08,54.48c-24.06,0-48.14-8.89-70.93-22.79c-22.8-15.22-39.28-38.02-51.94-65.87
		c-11.4-29.16-15.2-67.14-15.2-105.17v-5.06L1332.2,2326.03L1332.2,2326.03z M1403.14,2334.89c0,38.02,3.8,67.14,15.2,86.14
		c12.67,18.99,31.68,30.4,49.42,30.4c16.45,0,35.47-11.4,46.87-30.4c12.67-18.99,20.26-48.12,20.26-86.14s-7.59-69.68-20.26-88.68
		c-11.4-21.53-30.41-34.22-46.87-34.22c-17.74,0-35.47,12.67-45.62,31.67C1410.75,2265.19,1403.14,2296.87,1403.14,2334.89
		L1403.14,2334.89z M1666.65,2516.02v-504.19h70.92V2193c20.3-34.22,49.42-53.19,77.28-53.19c32.93,0,60.82,18.99,82.35,49.39
		c21.53,31.67,34.22,79.82,34.22,141.89c0,60.82-12.67,114.03-34.22,143.16c-22.8,31.67-50.66,50.69-78.55,50.69
		c-15.19,0-31.67-8.89-45.62-16.49c-15.19-6.33-29.12-25.32-36.75-44.35v51.93L1666.65,2516.02L1666.65,2516.02z M1737.57,2326.03
		c0,37.99,6.36,72.18,12.67,87.41c11.4,22.79,30.43,37.99,50.69,37.99c17.72,0,31.67-11.4,41.8-25.32
		c11.4-15.22,17.72-50.69,17.72-88.68c0-40.56-6.33-74.75-17.72-93.77c-10.13-18.99-27.89-31.67-45.62-31.67
		c-16.45,0-30.4,12.67-41.8,27.89C1743.94,2258.88,1737.57,2288,1737.57,2326.03L1737.57,2326.03z M2146.77,2402.04l70.95,11.4
		c-7.62,37.99-25.36,69.68-43.06,83.61c-20.26,15.22-48.15,27.89-77.28,27.89c-43.06,0-81.09-22.79-102.63-60.82
		c-17.72-31.67-25.36-76-25.36-126.66c0-59.55,10.13-110.21,32.93-144.43c22.8-34.22,55.75-53.19,91.22-53.19
		c39.26,0,70.95,18.99,92.5,53.19c24.05,37.99,37.99,95.01,37.99,167.22h-183.65c0,31.67,3.8,53.19,16.49,69.65
		c11.37,15.22,25.32,21.53,40.53,21.53c12.67,0,24.06-2.51,29.12-11.4C2132.82,2432.43,2140.46,2417.24,2146.77,2402.04
		L2146.77,2402.04z M2153.12,2300.68c0-26.58-10.13-50.66-17.75-64.61c-10.13-15.22-25.32-24.06-39.26-24.06
		c-16.49,0-31.67,12.67-39.26,27.89c-12.67,15.19-16.49,37.99-16.49,60.79H2153.12L2153.12,2300.68z"/>
	<path class="st1" d="M597.45,307.96h608.07L597.45,1788.88V307.96z M1619.77,307.96h615.67v1461.91L1619.77,307.96z
		 M1419.61,874.22l335.72,888.06h-207.76l-143.16-281.23h-228.03L1419.61,874.22z"/>
</g>
</svg>
