<?xml version="1.0" encoding="utf-8"?>
<!-- Generator: Adobe Illustrator 24.1.2, SVG Export Plug-In . SVG Version: 6.00 Build 0)  -->
<svg version="1.1" id="Layer_1" xmlns="http://www.w3.org/2000/svg" xmlns:xlink="http://www.w3.org/1999/xlink" x="0px" y="0px"
	 viewBox="0 0 2832.89 2832.89" style="enable-background:new 0 0 2832.89 2832.89;" xml:space="preserve">
<style type="text/css">
	.st0{fill:#563D7C;}
	.st1{fill:#FFFFFF;}
</style>
<path class="st0" d="M312.77,2235.49c0,157.2,127.43,284.62,284.62,284.62h1638.09c157.21,0,284.63-127.43,284.63-284.62V597.4
	c0-157.21-127.43-284.63-284.62-284.63H597.4c-157.21,0-284.63,127.43-284.63,284.62V2235.49L312.77,2235.49z"/>
<path class="st1" d="M1150.65,1289.16V976.57h275.15c26.21,0,51.48,2.18,75.81,6.55c24.33,4.36,45.86,12.16,64.58,23.39
	c18.71,11.23,33.69,26.83,44.92,46.79c11.23,19.97,16.85,45.55,16.85,76.74c0,56.16-16.85,96.72-50.54,121.67
	c-33.69,24.96-76.74,37.44-129.15,37.44H1150.65L1150.65,1289.16z M856.77,748.2v1336.47h647.65c59.9,0,118.24-7.48,175.02-22.46
	c56.78-14.98,107.31-38.06,151.62-69.26c44.29-31.2,79.55-71.45,105.75-120.73c26.21-49.29,39.31-107.63,39.31-175.02
	c0-83.61-20.28-155.05-60.83-214.32c-40.56-59.28-102.02-100.77-184.38-124.48c59.9-28.7,105.14-65.51,135.72-110.44
	c30.57-44.92,45.85-101.07,45.85-168.46c0-62.39-10.3-114.8-30.89-157.23c-20.59-42.42-49.6-76.43-87.04-102.01
	c-37.43-25.58-82.35-43.99-134.77-55.22c-52.41-11.23-110.44-16.85-174.08-16.85H856.77L856.77,748.2z M1150.65,1856.31v-366.87
	h320.07c63.64,0,114.81,14.66,153.5,43.99c38.68,29.32,58.03,78.3,58.03,146.93c0,34.95-5.93,63.64-17.79,86.1
	c-11.86,22.46-27.76,40.25-47.73,53.35c-19.96,13.11-43.05,22.46-69.26,28.08c-26.21,5.6-53.66,8.42-82.36,8.42H1150.65
	L1150.65,1856.31z"/>
</svg>
