<?xml version="1.0" encoding="utf-8"?>
<!-- Generator: Adobe Illustrator 24.1.2, SVG Export Plug-In . SVG Version: 6.00 Build 0)  -->
<svg version="1.1" id="Layer_1" xmlns="http://www.w3.org/2000/svg" xmlns:xlink="http://www.w3.org/1999/xlink" x="0px" y="0px"
	 viewBox="0 0 2994.37 3088.25" style="enable-background:new 0 0 2994.37 3088.25;" xml:space="preserve">
<style type="text/css">
	.st0{fill:#336791;}
	.st1{fill:#FFFFFF;}
</style>
<path d="M2699.79,1791c-14.53-44.02-52.61-74.68-101.85-82.04c-23.22-3.47-49.81-1.99-81.27,4.5
	c-54.84,11.32-95.53,15.62-125.22,16.46c112.08-189.23,203.22-405.03,255.68-608.16c84.84-328.46,39.5-478.1-13.47-545.78
	c-140.2-179.15-344.76-275.39-591.53-278.33c-131.64-1.61-247.21,24.38-307.5,43.07c-56.13-9.9-116.48-15.43-179.81-16.46
	c-118.71-1.89-223.6,23.98-313.22,77.17c-49.62-16.78-129.25-40.43-221.21-55.52c-216.29-35.51-390.6-7.84-518.11,82.24
	c-154.4,109.06-225.97,298.55-212.73,563.2c4.2,84.03,51.21,339.68,125.21,582.14c42.53,139.36,87.89,255.09,134.81,344
	c66.54,126.08,137.73,200.32,217.66,226.98c44.8,14.92,126.19,25.38,211.8-45.92c10.85,13.14,25.33,26.2,44.54,38.33
	c24.4,15.39,54.24,27.96,84.04,35.41c107.39,26.84,207.97,20.13,293.79-17.5c0.53,15.26,0.94,29.85,1.28,42.44
	c0.57,20.42,1.14,40.45,1.88,59.18c5.08,126.64,13.7,225.1,39.23,294c1.4,3.79,3.29,9.56,5.27,15.69
	c12.74,38.99,34.03,104.27,88.21,155.39c56.1,52.96,123.96,69.2,186.12,69.2c31.17,0,60.91-4.09,87-9.68
	c92.98-19.93,198.59-50.29,274.98-159.07c72.23-102.83,107.34-257.71,113.69-501.75c0.82-6.9,1.58-13.49,2.31-19.77l1.52-12.9
	l17.02,1.5l4.38,0.29c94.71,4.32,210.51-15.77,281.63-48.8C2562.11,2014.44,2742.19,1919.36,2699.79,1791"/>
<path class="st0" d="M2537.86,1815.96c-281.6,58.09-300.96-37.25-300.96-37.25c297.32-441.18,421.62-1001.19,314.36-1138.25
	c-292.62-373.87-799.15-197.05-807.61-192.47l-2.72,0.49c-55.64-11.55-117.9-18.43-187.88-19.57
	c-127.41-2.08-224.07,33.41-297.41,89.03c0,0-903.6-372.25-861.57,468.17c8.94,178.79,256.26,1352.83,551.25,998.21
	c107.82-129.67,212.01-239.31,212.01-239.31c51.74,34.37,113.68,51.91,178.62,45.61l5.05-4.28c-1.57,16.1-0.85,31.84,2.02,50.49
	c-76,84.91-53.66,99.81-205.58,131.09c-153.73,31.68-63.42,88.08-4.46,102.83c71.48,17.87,236.84,43.19,348.57-113.23l-4.45,17.85
	c29.77,23.85,50.68,155.13,47.17,274.14c-3.5,119-5.84,200.71,17.61,264.53c23.47,63.82,46.85,207.41,246.57,164.62
	c166.87-35.76,253.35-128.43,265.38-283.02c8.53-109.89,27.86-93.65,29.07-191.9l15.5-46.51c17.87-148.97,2.84-197.04,105.64-174.68
	l25,2.2c75.66,3.44,174.7-12.18,232.83-39.19c125.16-58.08,199.39-155.07,75.98-129.59L2537.86,1815.96"/>
<path class="st1" d="M1308.53,1066.06c-25.38-3.53-48.36-0.27-59.98,8.54c-6.53,4.95-8.56,10.69-9.11,14.64
	c-1.46,10.46,5.87,22.03,10.38,28c12.74,16.89,31.36,28.5,49.79,31.06c2.67,0.38,5.33,0.55,7.97,0.55
	c30.73,0,58.67-23.93,61.13-41.59C1371.78,1085.14,1339.67,1070.4,1308.53,1066.06 M2149.2,1066.77
	c-2.42-17.34-33.27-22.28-62.55-18.21c-29.24,4.07-57.59,17.27-55.22,34.65c1.89,13.51,26.29,36.58,55.17,36.58
	c2.44,0,4.9-0.16,7.39-0.51c19.28-2.67,33.42-14.91,40.15-21.97C2144.36,1086.55,2150.29,1074.56,2149.2,1066.77"/>
<path class="st1" d="M2631.56,1809.36c-10.74-32.47-45.3-42.91-102.72-31.06c-170.49,35.19-231.54,10.81-251.58-3.95
	c132.52-201.87,241.53-445.9,300.34-673.58c27.86-107.85,43.24-208.01,44.5-289.65c1.39-89.6-13.87-155.45-45.35-195.67
	c-126.9-162.15-313.15-249.13-538.6-251.52c-154.99-1.74-285.95,37.92-311.33,49.08c-53.46-13.29-111.74-21.46-175.19-22.5
	c-116.35-1.88-216.93,25.97-300.2,82.76c-36.17-13.46-129.65-45.55-243.96-63.97c-197.63-31.81-354.68-7.71-466.75,71.69
	c-133.73,94.74-195.46,264.1-183.5,503.36c4.02,80.49,49.89,328.12,122.27,565.27c95.27,312.13,198.84,488.82,307.81,525.17
	c12.75,4.25,27.46,7.22,43.68,7.22c39.75,0,88.49-17.92,139.19-78.87c61.85-74.19,125.82-146.58,191.85-217.08
	c42.84,22.99,89.9,35.83,138.03,37.12c0.09,1.26,0.22,2.52,0.33,3.77c-8.28,9.88-16.4,19.9-24.33,30.06
	c-33.35,42.33-40.29,51.15-147.64,73.25c-30.54,6.31-111.64,23.02-112.83,79.87c-1.29,62.11,95.87,88.2,106.94,90.97
	c38.58,9.66,75.74,14.42,111.18,14.42c86.19,0,162.05-28.33,222.67-83.15c-1.87,221.44,7.37,439.63,33.95,506.11
	c21.78,54.43,74.97,187.43,243.01,187.42c24.66,0,51.79-2.87,81.65-9.27c175.37-37.59,251.53-115.1,280.99-285.98
	c15.77-91.33,42.82-309.4,55.54-426.38c26.85,8.38,61.42,12.21,98.8,12.21c77.95,0,167.89-16.56,224.3-42.74
	C2537.95,1944.31,2652.29,1872.1,2631.56,1809.36L2631.56,1809.36z M2213.93,1018.91c-0.58,34.53-5.33,65.88-10.37,98.61
	c-5.43,35.2-11.03,71.58-12.44,115.76c-1.39,42.99,3.98,87.68,9.17,130.91c10.49,87.3,21.26,177.18-20.41,265.86
	c-6.92-12.27-13.09-24.94-18.46-37.96c-5.18-12.56-16.43-32.72-32-60.64c-60.59-108.66-202.48-363.13-129.84-466.96
	C2021.19,1033.58,2076.1,1001.8,2213.93,1018.91L2213.93,1018.91z M2046.86,433.86c202.01,4.46,361.8,80.03,474.93,224.6
	c86.77,110.89-8.78,615.45-285.39,1050.74c-2.78-3.54-5.58-7.06-8.39-10.58l-3.5-4.37c71.48-118.05,57.5-234.84,45.06-338.39
	c-5.11-42.5-9.94-82.63-8.71-120.34c1.27-39.96,6.55-74.23,11.67-107.38c6.28-40.84,12.67-83.1,10.91-132.91
	c1.32-5.23,1.85-11.4,1.16-18.73c-4.5-47.77-59.04-190.74-170.2-320.14c-60.81-70.78-149.48-149.99-270.56-203.41
	C1895.91,442.16,1967.13,432.09,2046.86,433.86L2046.86,433.86z M916.5,1958.52c-55.87,67.17-94.44,54.29-107.13,50.07
	c-82.66-27.57-178.58-202.29-263.15-479.35c-73.17-239.73-115.94-480.79-119.33-548.39c-10.68-213.79,41.14-362.78,154.04-442.84
	c183.73-130.29,485.8-52.31,607.18-12.75c-1.74,1.72-3.56,3.33-5.28,5.08c-199.18,201.15-194.46,544.83-193.97,565.84
	c-0.02,8.11,0.66,19.58,1.59,35.37c3.43,57.81,9.81,165.39-7.23,287.22c-15.83,113.22,19.07,224.03,95.74,304.03
	c7.87,8.19,16.14,15.99,24.78,23.37C1069.62,1782.73,995.45,1863.55,916.5,1958.52L916.5,1958.52z M1129.35,1674.53
	c-61.79-64.48-89.86-154.17-77.01-246.09c17.99-128.7,11.35-240.79,7.78-301.01c-0.5-8.43-0.95-15.81-1.2-21.64
	c29.1-25.8,163.94-98.05,260.11-76.02c43.88,10.05,70.62,39.93,81.73,91.33c57.53,266.1,7.61,377.01-32.5,466.14
	c-8.27,18.36-16.08,35.72-22.74,53.67l-5.17,13.88c-13.09,35.09-25.26,67.72-32.81,98.7
	C1241.85,1753.3,1177.94,1725.23,1129.35,1674.53L1129.35,1674.53z M1139.44,2033.39c-19.18-4.79-36.44-13.11-46.56-20.02
	c8.46-3.98,23.5-9.39,49.6-14.77c126.28-25.99,145.79-44.34,188.38-98.42c9.76-12.4,20.83-26.46,36.16-43.58l0.02-0.02
	c22.83-25.57,33.27-21.23,52.21-13.37c15.35,6.34,30.3,25.58,36.36,46.76c2.87,10,6.09,28.97-4.45,43.75
	C1362.19,2058.29,1232.54,2056.69,1139.44,2033.39z M1800.34,2648.41c-154.49,33.1-209.19-45.72-245.24-135.84
	c-23.26-58.18-34.7-320.52-26.59-610.23c0.1-3.85-0.44-7.57-1.51-11.08c-0.95-6.92-2.39-13.76-4.32-20.47
	c-12.06-42.15-41.46-77.42-76.73-92.04c-14.01-5.8-39.73-16.46-70.64-8.55c6.59-27.16,18.02-57.83,30.41-91.03l5.2-13.97
	c5.85-15.75,13.2-32.06,20.96-49.33c41.97-93.25,99.46-220.97,37.07-509.51c-23.37-108.08-101.41-160.86-219.71-148.59
	c-70.92,7.34-135.81,35.95-168.17,52.36c-6.96,3.52-13.32,6.93-19.27,10.25c9.03-108.89,43.16-312.39,170.82-441.15
	c80.38-81.05,187.42-121.09,317.85-118.93c256.98,4.2,421.78,136.08,514.78,245.99c80.14,94.7,123.54,190.09,140.86,241.55
	c-130.24-13.25-218.82,12.46-263.72,76.66c-97.69,139.65,53.44,410.68,126.08,540.94c13.32,23.87,24.82,44.5,28.43,53.27
	c23.65,57.32,54.27,95.6,76.63,123.53c6.86,8.56,13.5,16.86,18.56,24.12c-39.45,11.37-110.3,37.65-103.84,168.99
	c-5.21,65.9-42.24,374.45-61.05,483.46C2002.35,2562.82,1949.35,2616.46,1800.34,2648.41L1800.34,2648.41z M2445.2,1910.45
	c-40.34,18.72-107.84,32.76-171.96,35.78c-70.83,3.31-106.88-7.93-115.37-14.86c-3.98-81.85,26.48-90.4,58.73-99.45
	c5.07-1.42,10.01-2.81,14.78-4.48c2.96,2.41,6.21,4.81,9.77,7.16c56.93,37.57,158.46,41.62,301.81,12.03l1.57-0.31
	C2525.2,1864.4,2492.11,1888.66,2445.2,1910.45L2445.2,1910.45z"/>
</svg>
