<?xml version="1.0" encoding="utf-8"?>
<!-- Generator: Adobe Illustrator 24.1.2, SVG Export Plug-In . SVG Version: 6.00 Build 0)  -->
<svg version="1.1" id="Layer_1" xmlns="http://www.w3.org/2000/svg" xmlns:xlink="http://www.w3.org/1999/xlink" x="0px" y="0px"
	 viewBox="0 0 2832.89 2832.89" style="enable-background:new 0 0 2832.89 2832.89;" xml:space="preserve">
<style type="text/css">
	.st0{fill:url(#SVGID_1_);}
	.st1{fill:url(#SVGID_2_);}
</style>
<g>
	
		<linearGradient id="SVGID_1_" gradientUnits="userSpaceOnUse" x1="1465.8677" y1="-1.8392" x2="1466.5344" y2="-1.1776" gradientTransform="matrix(1849.2675 0 0 1853.3917 -2710378 3813.8975)">
		<stop  offset="0" style="stop-color:#387EB8"/>
		<stop  offset="1" style="stop-color:#366994"/>
	</linearGradient>
	<path class="st0" d="M1407.46,176.06c-633.07,0-593.54,274.53-593.54,274.53l0.7,284.43h604.12v85.39H574.68
		c0,0-405.1-45.94-405.1,592.82c0,638.78,353.58,616.12,353.58,616.12h211.02v-296.42c0,0-11.38-353.58,347.94-353.58h599.18
		c0,0,336.64,5.44,336.64-325.35V507.07C2017.93,507.07,2069.06,176.06,1407.46,176.06z M1074.35,367.33
		c59.97-0.05,108.63,48.52,108.68,108.49c0,0.07,0,0.13,0,0.2c0.05,59.97-48.52,108.63-108.49,108.68c-0.07,0-0.13,0-0.2,0
		c-59.97,0.05-108.63-48.52-108.68-108.49c0-0.07,0-0.13,0-0.2c-0.05-59.97,48.52-108.63,108.49-108.68
		C1074.22,367.33,1074.28,367.33,1074.35,367.33z"/>
	
		<linearGradient id="SVGID_2_" gradientUnits="userSpaceOnUse" x1="1465.9293" y1="-1.7537" x2="1466.6455" y2="-1.0751" gradientTransform="matrix(1849.2671 0 0 1853.3918 -2709733 4441.1777)">
		<stop  offset="0" style="stop-color:#FFE052"/>
		<stop  offset="1" style="stop-color:#FFC331"/>
	</linearGradient>
	<path class="st1" d="M1425.44,2656.82c633.07,0,593.54-274.53,593.54-274.53l-0.7-284.42h-604.13v-85.39h844.07
		c0,0,405.1,45.94,405.1-592.83s-353.58-616.11-353.58-616.11h-211.02v296.41c0,0,11.38,353.58-347.94,353.58H1151.6
		c0,0-336.64-5.44-336.64,325.36v546.95C814.96,2325.83,763.84,2656.82,1425.44,2656.82L1425.44,2656.82z M1758.55,2465.57
		c-59.97,0.05-108.63-48.52-108.68-108.49c0-0.07,0-0.13,0-0.2c-0.06-59.97,48.51-108.63,108.48-108.69c0.07,0,0.14,0,0.21,0
		c59.97-0.05,108.63,48.52,108.68,108.49c0,0.06,0,0.13,0,0.2c0.05,59.97-48.52,108.63-108.49,108.68
		C1758.68,2465.56,1758.61,2465.56,1758.55,2465.57L1758.55,2465.57z"/>
</g>
</svg>
