<?xml version="1.0" encoding="utf-8"?>
<!-- Generator: Adobe Illustrator 24.1.2, SVG Export Plug-In . SVG Version: 6.00 Build 0)  -->
<svg version="1.1" id="Layer_1" xmlns="http://www.w3.org/2000/svg" xmlns:xlink="http://www.w3.org/1999/xlink" x="0px" y="0px"
	 viewBox="0 0 2527.77 2527.77" style="enable-background:new 0 0 2527.77 2527.77;" xml:space="preserve">
<style type="text/css">
	.st0{fill:#FFFFFF;}
	.st1{fill:#53C1DE;}
</style>
<g>
	<path class="st0" d="M21.6,1259.87c0,187.64,183.22,362.8,472.08,461.53c-57.68,290.39-10.33,524.45,147.81,615.65
		c162.54,93.75,404.7,28.86,634.54-172.06c224.04,192.8,450.47,268.68,608.47,177.22c162.4-94.01,211.78-343.94,152.5-643.4
		c300.87-99.47,469.16-248.83,469.16-438.94c0-183.28-183.56-341.84-468.53-439.94c63.82-311.83,9.75-540.21-154.94-635.18
		c-158.77-91.56-387.84-11.76-615.17,186.09c-236.51-209.99-463.31-274.1-627.83-178.87c-158.63,91.82-203.89,330.14-146.02,625.9
		C214.57,915.18,21.6,1077.33,21.6,1259.87z"/>
	<path class="st1" d="M1977.29,917.34c-23.49-8.06-47.17-15.52-71.03-22.38c3.96-16.08,7.62-32.23,10.98-48.45
		c53.77-261,18.61-471.27-101.44-540.49c-115.1-66.38-303.36,2.83-493.49,168.28c-18.73,16.34-37.05,33.15-54.94,50.42
		c-11.98-11.48-24.17-22.74-36.56-33.77c-199.26-176.91-398.99-251.46-518.92-182.04c-115,66.57-149.06,264.25-100.65,511.6
		c4.82,24.5,10.25,48.86,16.31,73.08c-28.26,8.03-55.55,16.58-81.67,25.68c-233.6,81.44-382.8,209.09-382.8,341.49
		c0,136.75,160.15,273.91,403.48,357.08c19.73,6.71,39.63,12.93,59.67,18.65c-6.51,26.09-12.29,52.36-17.33,78.78
		c-46.15,243.06-10.11,436.05,104.59,502.21c118.46,68.31,317.28-1.9,510.89-171.14c15.3-13.38,30.66-27.57,46.04-42.44
		c19.37,18.69,39.26,36.84,59.65,54.42c187.53,161.37,372.74,226.53,487.33,160.2c118.35-68.51,156.81-275.84,106.87-528.08
		c-3.81-19.27-8.25-38.94-13.23-58.98c13.96-4.12,27.66-8.38,41.03-12.81c252.96-83.81,417.53-219.3,417.53-357.88
		C2369.6,1127.89,2215.6,999.38,1977.29,917.34L1977.29,917.34z"/>
	<path class="st0" d="M1922.42,1529.17c-12.06,3.99-24.44,7.85-37.06,11.59c-27.93-88.4-65.62-182.41-111.73-279.53
		c44.01-94.82,80.24-187.62,107.39-275.46c22.57,6.54,44.48,13.43,65.59,20.7c204.19,70.28,328.74,174.21,328.74,254.29
		C2275.34,1346.07,2140.83,1456.8,1922.42,1529.17L1922.42,1529.17z M1831.8,1708.75c22.08,111.54,25.23,212.38,10.6,291.22
		c-13.14,70.84-39.57,118.06-72.24,136.98c-69.54,40.25-218.25-12.07-378.62-150.07c-18.39-15.82-36.91-32.71-55.49-50.58
		c62.18-68.01,124.31-147.06,184.95-234.85c106.68-9.46,207.45-24.94,298.84-46.06C1824.35,1673.53,1828.35,1691.33,1831.8,1708.75
		L1831.8,1708.75z M915.33,2129.99c-67.94,23.99-122.05,24.68-154.75,5.82c-69.61-40.14-98.53-195.11-59.07-402.96
		c4.69-24.56,10.07-48.99,16.11-73.26c90.38,19.99,190.42,34.37,297.35,43.05c61.04,85.9,124.98,164.87,189.41,234.01
		c-13.69,13.25-27.71,26.15-42.04,38.71C1076.73,2050.2,990.95,2103.28,915.33,2129.99L915.33,2129.99z M597.06,1528.65
		c-107.59-36.78-196.45-84.57-257.35-136.71c-54.72-46.87-82.36-93.4-82.36-131.17c0-80.34,119.79-182.82,319.58-252.48
		c25.08-8.7,50.4-16.67,75.94-23.9c27.62,89.81,63.84,183.71,107.54,278.67c-44.28,96.37-81.01,191.77-108.88,282.63
		C633.23,1540.46,615.07,1534.77,597.06,1528.65z M703.75,802.41c-41.47-211.93-13.93-371.8,55.37-411.92
		c73.83-42.73,237.05,18.2,409.09,170.96c11,9.77,22.04,19.99,33.1,30.57c-64.1,68.84-127.45,147.2-187.96,232.61
		c-103.77,9.62-203.12,25.07-294.44,45.76C713.29,847.85,708.23,825.18,703.75,802.41L703.75,802.41z M1655.54,1037.43
		c-21.57-37.26-43.94-74.05-67.1-110.35c70.41,8.89,137.86,20.7,201.19,35.16c-19.01,60.94-42.71,124.67-70.62,190
		C1698.62,1113.55,1677.46,1075.27,1655.54,1037.43L1655.54,1037.43z M1267.4,659.38c43.47,47.1,87.02,99.69,129.85,156.75
		c-86.88-4.11-173.91-4.12-260.79-0.06C1179.33,759.54,1223.24,707.02,1267.4,659.38L1267.4,659.38z M876.77,1038.07
		c-21.65,37.55-42.41,75.59-62.28,114.11c-27.45-65.1-50.94-129.12-70.11-190.93c62.96-14.09,130.09-25.6,200.04-34.34
		C921,963.42,898.45,1000.49,876.77,1038.07z M946.43,1601.36c-72.26-8.07-140.41-18.99-203.35-32.69
		c19.48-62.91,43.48-128.3,71.52-194.8c19.95,38.54,40.81,76.61,62.56,114.17C899.34,1526.36,922.44,1564.14,946.43,1601.36z
		 M1270.01,1868.82c-44.68-48.21-89.23-101.53-132.76-158.88c42.24,1.66,85.32,2.5,129.1,2.5c44.98,0,89.44-1.01,133.2-2.96
		C1356.57,1767.87,1313.19,1821.27,1270.01,1868.82z M1719.91,1370.48c29.49,67.22,54.35,132.26,74.1,194.1
		c-63.98,14.6-133.05,26.36-205.83,35.09c23.32-36.97,45.91-74.41,67.74-112.28C1678.11,1448.9,1699.45,1409.92,1719.91,1370.48
		L1719.91,1370.48z M1574.26,1440.3c-33.42,58.06-68.73,115.02-105.85,170.79c-65.47,4.68-133.12,7.09-202.06,7.09
		c-68.66,0-135.45-2.14-199.78-6.31c-38.09-55.64-74.06-112.7-107.84-171.06c-33.62-58.05-65.02-117.35-94.14-177.79
		c29.04-60.45,60.35-119.79,93.85-177.88v0.02c33.49-58.11,69.18-114.92,106.99-170.32c65.62-4.96,132.9-7.56,200.92-7.56
		c68.32,0,135.69,2.62,201.29,7.62c37.42,55.31,72.88,111.93,106.31,169.75c33.62,57.97,65.34,117.01,95.12,177.04
		C1639.61,1322.34,1607.98,1381.91,1574.26,1440.3L1574.26,1440.3z M1768.72,387.69c73.88,42.62,102.62,214.45,56.2,439.81
		c-3.04,14.68-6.35,29.3-9.92,43.87c-91.54-21.12-190.95-36.84-295.03-46.61c-60.63-86.33-123.45-164.84-186.52-232.78
		c16.53-15.93,33.44-31.45,50.74-46.54C1547.09,403.65,1699.34,347.68,1768.72,387.69L1768.72,387.69z"/>
	<path class="st1" d="M1266.34,1063.73c108.82,0,197.03,88.22,197.03,197.03c0,108.82-88.21,197.04-197.03,197.04
		c-108.81,0-197.03-88.22-197.03-197.04C1069.31,1151.95,1157.53,1063.73,1266.34,1063.73"/>
</g>
</svg>
