<?xml version="1.0" encoding="utf-8"?>
<!-- Generator: Adobe Illustrator 24.1.2, SVG Export Plug-In . SVG Version: 6.00 Build 0)  -->
<svg version="1.1" id="Layer_1" xmlns="http://www.w3.org/2000/svg" xmlns:xlink="http://www.w3.org/1999/xlink" x="0px" y="0px"
	 viewBox="0 0 2364.3 2364.3" style="enable-background:new 0 0 2364.3 2364.3;" xml:space="preserve">
<style type="text/css">
	.st0{fill:#CF649A;}
</style>
<path class="st0" d="M2011.67,1310.72c-80.44,0.45-150.1,19.77-208.52,48.54c-21.57-42.69-43.14-80-46.73-107.85
	c-4.04-32.36-8.99-52.13-4.04-90.78c4.94-38.65,27.41-93.48,27.41-97.97c-0.45-4.04-4.95-23.82-51.23-24.27s-86.28,8.99-90.78,21.12
	c-4.49,12.13-13.48,40-19.32,68.76c-8.09,42.24-92.58,191.89-140.66,270.54c-15.73-30.56-29.21-57.52-31.91-79.1
	c-4.04-32.35-8.99-52.13-4.04-90.77c4.94-38.65,27.41-93.47,27.41-97.97c-0.45-4.04-4.94-23.82-51.23-24.27
	c-46.29-0.45-86.28,8.99-90.78,21.12c-4.49,12.13-9.44,40.9-19.32,68.76c-9.44,27.86-121.79,277.73-151,342.89
	c-14.83,33.26-27.86,59.77-37.3,77.75c-9.44,17.98-0.45,1.35-1.35,3.15c-8.09,15.28-12.58,23.82-12.58,23.82v0.45
	c-6.29,11.23-13.03,22.02-16.18,22.02c-2.25,0-6.74-30.11,0.9-71.45c16.63-86.74,57.07-222,56.63-226.94
	c0-2.25,7.64-26.07-26.07-38.2c-32.81-12.13-44.49,8.09-47.19,8.09s-4.94,7.19-4.94,7.19s36.4-152.34-69.66-152.34
	c-66.51,0-158.19,72.35-203.58,138.41c-28.76,15.73-89.88,48.98-154.59,84.49c-24.72,13.48-50.33,27.86-74.6,40.9l-4.94-5.4
	c-128.53-137.07-366.26-234.13-356.37-418.39c3.6-66.96,26.96-243.57,456.59-457.48c351.88-175.26,633.65-127.18,682.63-20.22
	c69.66,152.79-150.55,436.81-516.35,477.71c-139.31,15.73-212.57-38.2-230.99-58.42c-19.32-21.12-22.02-22.02-29.21-17.98
	c-11.68,6.29-4.49,25.17,0,36.4c10.79,28.31,55.72,78.64,132.12,103.81c66.96,22.02,230.54,34.15,428.27-42.24
	c221.55-85.83,394.57-324.01,343.79-523.1c-51.68-202.68-387.83-269.19-705.55-156.39c-189.2,67.41-394.12,172.57-541.53,310.53
	C49.62,849.22,21.75,992.13,33.44,1051.45c40.9,211.67,332.55,349.63,449.4,451.64c-5.84,3.14-11.23,6.29-16.18,8.99
	c-58.42,28.76-280.87,145.15-336.6,268.28c-62.92,139.31,9.89,239.53,58.42,253.01c150.1,41.79,303.79-33.26,386.93-156.84
	c82.68-123.58,72.8-284.02,34.6-357.27l-1.35-2.7l45.84-26.96c29.66-17.53,58.88-33.7,84.49-47.64
	c-14.38,39.1-24.72,85.39-30.1,152.79c-6.29,79.1,26.06,181.56,68.76,222c18.87,17.52,41.34,17.98,55.28,17.98
	c49.43,0,71.9-40.9,96.62-89.88c30.56-59.77,57.52-128.98,57.52-128.98s-33.7,187.4,58.42,187.4c33.7,0,67.41-43.59,82.69-66.06
	v0.45c0,0,0.9-1.35,2.7-4.49c1.89-2.79,3.68-5.63,5.39-8.53v-0.9c13.48-23.37,43.59-76.85,88.53-165.38
	c57.97-114.15,113.7-257.05,113.7-257.05s5.39,35.05,22.02,92.58c9.88,34.16,31.45,71.45,48.08,107.85
	c-13.48,18.87-21.57,29.66-21.57,29.66l0.45,0.45c-10.78,14.38-22.92,29.66-35.5,44.94c-45.84,54.83-100.66,117.3-107.85,135.27
	c-8.54,21.12-6.74,36.85,9.89,49.43c12.13,8.99,33.7,10.78,56.62,8.99c41.34-2.7,70.11-13.03,84.49-19.33
	c22.47-8.09,48.09-20.22,72.8-38.2c44.94-33.25,72.35-80.44,69.66-143.35c-1.35-34.6-12.58-68.76-26.51-101.11
	c4.04-5.84,8.09-11.69,12.13-17.98c71-103.81,125.83-217.96,125.83-217.96s5.39,35.05,22.02,92.58
	c8.53,29.21,25.62,61.12,40.89,92.58c-66.51,54.38-108.3,117.29-122.68,158.64c-26.51,76.4-5.84,111,33.26,119.09
	c17.52,3.6,42.69-4.49,61.56-12.58c23.37-7.64,51.68-20.68,77.75-40c44.94-33.26,88.08-79.54,85.83-142.01
	c-1.35-28.76-8.99-57.07-19.32-84.04c56.62-23.37,129.87-36.85,222.9-25.62c199.98,23.37,239.53,148.3,231.89,200.43
	c-7.64,52.13-49.43,80.89-63.37,89.88c-13.93,8.54-18.43,11.69-17.08,17.98c1.8,9.44,8.09,8.99,20.22,7.19
	c16.63-2.7,105.16-42.69,108.75-138.86C2337.04,1444.19,2219.74,1309.37,2011.67,1310.72L2011.67,1310.72z M469.35,1830.67
	c-66.06,72.35-159.09,99.77-198.63,76.4c-42.69-24.72-26.07-131.22,55.28-208.07c49.43-46.74,113.7-89.88,155.94-116.39
	c9.44-5.84,23.82-14.38,40.89-24.72c2.7-1.79,4.49-2.7,4.49-2.7c3.15-1.8,6.74-4.04,10.34-6.29
	C567.77,1658.55,539.01,1754.72,469.35,1830.67L469.35,1830.67z M952.45,1502.16c-22.92,56.17-71.45,200.43-100.66,192.34
	c-25.17-6.74-40.45-115.94-4.95-223.8c17.98-54.38,56.17-119.09,78.64-144.26c36.41-40.45,75.95-53.93,85.84-37.3
	C1023,1310.71,966.83,1467.1,952.45,1502.16z M1351.06,1692.7c-9.89,4.95-18.87,8.54-22.92,5.85c-3.15-1.8,4.04-8.54,4.04-8.54
	s49.88-53.48,69.66-78.19c11.23-14.38,24.72-31,39.1-49.88v5.39C1440.94,1632.03,1378.92,1675.17,1351.06,1692.7L1351.06,1692.7z
	 M1658.44,1622.6c-7.19-5.39-6.29-22.02,17.98-74.15c9.44-20.67,31.01-55.28,68.31-88.08c4.49,13.48,7.19,26.51,6.74,38.65
	C1751.02,1579.9,1693.5,1610.01,1658.44,1622.6z"/>
</svg>
