<?xml version="1.0" encoding="utf-8"?>
<!-- Generator: Adobe Illustrator 24.1.2, SVG Export Plug-In . SVG Version: 6.00 Build 0)  -->
<svg version="1.1" id="Layer_1" xmlns="http://www.w3.org/2000/svg" xmlns:xlink="http://www.w3.org/1999/xlink" x="0px" y="0px"
	 viewBox="0 0 2553.64 2553.64" style="enable-background:new 0 0 2553.64 2553.64;" xml:space="preserve">
<style type="text/css">
	.st0{fill:#FFFFFF;}
	.st1{fill:#8ED6FB;}
	.st2{fill:#1C78C0;}
</style>
<path class="st0" d="M1273.62,9.34l1104.79,625v1250l-1104.79,625l-1104.79-625v-1250L1273.62,9.34z"/>
<path class="st1" d="M2181.12,1841.21l-871.04,492.71v-383.75l542.71-298.54L2181.12,1841.21z M2240.7,1787.25V756.84L1921.95,940.8
	v662.29L2240.7,1787.25L2240.7,1787.25z M362.58,1841.21l871.04,492.71v-383.75l-542.71-298.54L362.58,1841.21L362.58,1841.21z
	 M303,1787.25V756.84L621.75,940.8v662.29L303,1787.25L303,1787.25z M340.29,690.17l893.33-505.42v371.04l-572.29,314.8l-4.38,2.5
	L340.29,690.17z M2203.41,690.17l-893.33-505.42v371.04l572.29,314.79l4.37,2.5L2203.41,690.17z"/>
<path class="st2" d="M1233.62,1862.88L698.2,1568.5V985.17l535.42,309.17V1862.88 M1310.08,1862.88l535.42-294.38V985.17
	l-535.42,309.17L1310.08,1862.88 M734.45,917.67l537.5-295.62l537.5,295.62l-537.5,310.42L734.45,917.67"/>
</svg>
